<svg width="186" height="35" fill="none" xmlns="http://www.w3.org/2000/svg"><path fill-rule="evenodd" clip-rule="evenodd" d="M149.071 15.265A46.786 46.786 0 01158.325 34l26.405-16.553C173.9-.912 170.59 1.42 170.59 1.42l-21.519 13.844z" fill="#315391" stroke="#fff" stroke-width="1.5" stroke-miterlimit="10" stroke-linecap="round" stroke-linejoin="round"/><path fill-rule="evenodd" clip-rule="evenodd" d="M146.964 16.694s18.133 4.063 20.69 2.182c3.01-2.182 6.171-18.508 6.171-18.508l-26.861 16.326z" fill="#fff"/><path fill-rule="evenodd" clip-rule="evenodd" d="M145.534 15.266c11.287.301 17.833 2.86 21.444 1.43 3.536-1.43 4.141-15.349 4.141-15.349-7.527-.15-25.585 13.92-25.585 13.92z" fill="#F60"/><path fill-rule="evenodd" clip-rule="evenodd" d="M4.084 10.977a2.823 2.823 0 00-.075-.753c-.076-.152-.226-.53-.53-1.054h4.443a1.326 1.326 0 01.978.452 1.486 1.486 0 01.452 1.054l-.151.902.225-1.203c.216-.351.496-.658.828-.903.305-.146.64-.223.978-.225h3.236a2.84 2.84 0 012.253.902 3.28 3.28 0 01.753 2.254c0 .3-.075.753-.151 1.355l-2.784 12.64c0 .677-4.138 1.956-4.138 1.956a.863.863 0 01-.828-.677 2.326 2.326 0 01-.15-.602.679.679 0 01.075-.377l2.558-11.888v-.376c0-.301-.075-.53-.3-.602a2.999 2.999 0 00-1.28-.225 3.792 3.792 0 00-1.429.225c-.225.075-.376.376-.53.903L5.733 26.848c0 .377-3.912 1.505-3.912 1.505a2.706 2.706 0 01-.818-.146 1.266 1.266 0 01-.53-1.128v-.226l3.611-15.876zM21.54 7.967l.45-2.859h3.462a1.193 1.193 0 011.128.53.454.454 0 01.225.452v.301l-.602 2.634h-3.388a1.552 1.552 0 01-.978-.225.938.938 0 01-.297-.833zm-.53 3.537a4.442 4.442 0 00-.152-1.054 5.434 5.434 0 00-.677-1.054h4.74a.954.954 0 01.828.53c.133.23.21.488.225.754v.15l-3.23 15.57c-.025.378 0 .757.075 1.128.088.184.188.361.301.53l-4.139.301a1.04 1.04 0 01-.827-.452 1.914 1.914 0 01-.376-1.205l3.232-15.198zM29.365 13.76h-1.429l.677-3.912a5.64 5.64 0 003.236-.902 5.713 5.713 0 002.18-3.086h2.032l-.678 3.385h3.988l-.151 3.16a1.045 1.045 0 01-.602 1.054c-.354.162-.74.239-1.128.226h-2.254a.794.794 0 00-.903.753l-1.883 8.655v.225c0 .452.15.677.452.677h2.86c.253-.066.486-.195.676-.376.14-.139.291-.264.453-.377l-.301 3.988c-.085.325-.27.615-.53.827a2.239 2.239 0 01-1.129.377h-6.845a1.694 1.694 0 01-1.204-.602 1.577 1.577 0 01-.3-.827v-.377l2.783-12.868zM41.93 10.975c0-.3.076-.452.076-.602a1.517 1.517 0 00-.225-.827l4.063-.3a1.326 1.326 0 011.128.451c.236.358.367.775.376 1.204 0 .151 0 .3-.075.225v-1.053c.115-.29.328-.53.602-.678.24-.094.495-.145.753-.151h4.513l-.602 2.784a1.313 1.313 0 01-.53 1.054c-.284.273-.66.434-1.054.452h-3.08a1.442 1.442 0 00-1.584 1.279L43.657 26.7v.151c.015.16.067.315.15.452.097.258.252.49.453.678l-4.289.3a1.557 1.557 0 01-1.128-.376 1.246 1.246 0 01-.376-.903v-.225l3.464-15.803zM60.44 9.245a8.58 8.58 0 014.363.903 4.322 4.322 0 012.254 4.139c0 5.19-1.054 8.953-3.01 11.286a8.643 8.643 0 01-6.922 2.784 6.74 6.74 0 01-4.514-1.355 4.813 4.813 0 01-1.651-3.987v-.753c.452-5.117 1.655-8.728 3.61-10.76a7.241 7.241 0 015.87-2.257zm0 3.838a3.284 3.284 0 00-3.01 1.429 34.951 34.951 0 00-1.957 7.9v.226a1.479 1.479 0 00.678 1.28 2.805 2.805 0 001.73.677c1.279 0 2.253-.753 3.084-2.332a19.051 19.051 0 001.43-6.997 2.293 2.293 0 00-.453-1.655 1.838 1.838 0 00-1.503-.528zM70.972 10.977a3.312 3.312 0 00-.15-.753c-.076-.152-.226-.53-.531-1.054h4.44a1.325 1.325 0 01.978.452 1.488 1.488 0 01.452 1.054l-.151.902.225-1.203c.215-.351.496-.658.827-.903.306-.146.64-.223.978-.225h3.236a2.84 2.84 0 012.254.902 3.28 3.28 0 01.753 2.254c0 .3-.076.753-.151 1.355l-2.784 12.64c0 .677-4.139 1.956-4.139 1.956a.863.863 0 01-.827-.677 2.324 2.324 0 01-.151-.602.68.68 0 01.076-.377l2.558-11.888v-.376c0-.301-.075-.53-.3-.602a2.999 2.999 0 00-1.28-.225 3.792 3.792 0 00-1.43.225c-.225.075-.376.376-.53.903l-2.783 12.113c0 .377-3.912 1.505-3.912 1.505a2.702 2.702 0 01-.827-.151 1.193 1.193 0 01-.53-1.128v-.226l3.7-15.871zM99.187 19.704H90.76c-.076.377-.076.753-.151 1.28-.058.373-.084.75-.076 1.128 0 .53.076.903.3 1.054.377.25.831.357 1.28.3h3.01c.602.029 1.206.003 1.805-.075a4.68 4.68 0 002.332-1.429l-.979 4.74a1.997 1.997 0 01-.903 1.204 3.306 3.306 0 01-1.655.53h-5.568a5.114 5.114 0 01-3.314-.902 4.417 4.417 0 01-1.28-3.611v-1.054c.453-5.418 1.356-9.105 2.71-10.986.978-1.655 3.16-2.558 6.545-2.558 2.709 0 4.515.3 5.418.903.903.677 1.355 1.956 1.355 3.912a21.15 21.15 0 01-.377 3.61c-.225.678-.301 1.054-.376 1.204-.145.524-.671.75-1.65.75zm-4.44-6.47a2.67 2.67 0 00-2.182.827 6.046 6.046 0 00-1.054 2.107h5.343c.087-.396.137-.799.15-1.204a3.668 3.668 0 00-.15-1.128 3.06 3.06 0 00-2.107-.603v.001zM103.401 10.75a1.07 1.07 0 00-.151-.452l-.602-.977h4.364a.603.603 0 01.677.452c.075.269.1.549.076.827l.15 10.91 4.966-12.114h4.439v12.265l4.139-10.834c.075-.169.126-.347.151-.53a2.064 2.064 0 01-.602-.828h4.138c.531 0 .828.377.828 1.128a4.486 4.486 0 01-.377 1.43l-7.45 16.555h-3.611a1.374 1.374 0 01-1.504-1.58l-.076-9.782-4.514 11.36h-3.686a1.25 1.25 0 01-1.429-1.354l.074-16.476zM132.142 9.245h7.749l-.53 2.559c-.151.677-.677.978-1.58.978h-3.386a3.208 3.208 0 00-1.805.377 2.238 2.238 0 00-.602 1.805c0 .602 1.128 1.204 3.314 1.656a3.839 3.839 0 013.386 3.987 8.702 8.702 0 01-1.581 5.643 5.056 5.056 0 01-4.138 2.031h-8.051a.957.957 0 01-.827-.53 1.03 1.03 0 01-.301-.827v-.301l.903-3.461h.753v.601c0 .226 0 .301.076.377.388.29.872.425 1.354.376.226 0 .678.076 1.204.076.827 0 1.73 0 2.634-.076.827-.075 1.279-.15 1.355-.3.301 0 .602-.226.827-.754a4 4 0 00.452-1.428v-.076c0-.602-.903-1.128-2.708-1.73-2.708-.677-4.063-1.73-4.063-3.236a10.05 10.05 0 011.429-5.567 4.912 4.912 0 014.136-2.18z" fill="#315391"/></svg>